<svg height="40px" version="1.1" viewBox="0 0 40 40" width="40px" aria-label="phone-support" class="" name="phone-support"><path d="M20,40 C8.954305,40 0,31.045695 0,20 C0,8.954305 8.954305,0 20,0 C31.045695,0 40,8.954305 40,20 C40,31.045695 31.045695,40 20,40 Z M27.5999083,24.6474943 L25.1354957,22.1757241 C24.6446304,21.6854253 23.8317479,21.7003218 23.3237822,22.209931 L22.0822006,23.4548046 C22.0037593,23.4114483 21.9225673,23.3661609 21.8372034,23.3181149 C21.0531576,22.8824368 19.9800573,22.2852874 18.8508424,21.152 C17.7182808,20.0163218 17.1222923,18.9384828 16.686533,18.1516782 C16.6405501,18.0683218 16.5964928,17.987954 16.5529857,17.9116322 L17.3862693,17.0771954 L17.7959427,16.6658391 C18.3046877,16.1554943 18.3187163,15.3405057 17.8289971,14.8487816 L15.3645845,12.3767356 C14.8748653,11.8857011 14.061616,11.9005977 13.5528711,12.4109425 L12.8583152,13.1114943 L12.8772951,13.1303908 C12.6444011,13.4284138 12.449788,13.7721379 12.3049628,14.1428046 C12.1714613,14.4956322 12.0883438,14.8323218 12.0503381,15.1697011 C11.7249284,17.8751724 12.9577077,20.3477701 16.3033123,23.7030345 C20.9279542,28.3406437 24.654808,27.9902989 24.8155874,27.9731954 C25.1657536,27.9312184 25.501341,27.8473103 25.842384,27.7144828 C26.2087794,27.5709425 26.5512894,27.376046 26.8482751,27.1429885 L26.8634499,27.1565057 L27.5670831,26.4655172 C28.0747736,25.9552644 28.0893983,25.14 27.5999083,24.6474943 Z" id="path-1"></path><g fill="none" fill-rule="evenodd" stroke="none" stroke-width="1"><g transform="translate(-831.000000, -519.000000)"><g><g><g transform="translate(831.000000, 519.000000)"><mask fill="white" id="mask-2"><use xlink:href="#path-1"></use></mask><use fill="#FFFFFF" id="Phone" xlink:href="#path-1"></use></g></g></g></g></g></svg>