<svg width="40" height="40" viewBox="0 0 40 40" fill="none" xmlns="http://www.w3.org/2000/svg">
<circle cx="20" cy="20" r="20" fill="white"/>
<path d="M23.2632 24.1242L24.9488 22.438C25.1758 22.2137 25.4631 22.0601 25.7756 21.996C26.0882 21.9319 26.4126 21.9599 26.7096 22.0766L28.7639 22.8972C29.064 23.019 29.3213 23.227 29.5034 23.495C29.6855 23.7629 29.7843 24.0788 29.7872 24.4027V28.1667C29.7855 28.3871 29.7392 28.6048 29.6511 28.8068C29.563 29.0089 29.435 29.191 29.2747 29.3422C29.1144 29.4934 28.9252 29.6106 28.7184 29.6867C28.5116 29.7628 28.2916 29.7963 28.0716 29.7851C13.6767 28.8893 10.7721 16.6943 10.2228 12.027C10.1973 11.7978 10.2206 11.5658 10.2912 11.3463C10.3617 11.1267 10.4779 10.9246 10.6322 10.7532C10.7864 10.5819 10.9752 10.4451 11.1861 10.352C11.397 10.2588 11.6252 10.2114 11.8557 10.2128H15.4901C15.8145 10.2138 16.1311 10.3118 16.3993 10.4942C16.6675 10.6767 16.875 10.9352 16.9951 11.2366L17.8153 13.2917C17.9359 13.5876 17.9667 13.9125 17.9038 14.2257C17.8409 14.539 17.6871 14.8268 17.4616 15.0532L15.7761 16.7394C15.7761 16.7394 16.7468 23.3112 23.2632 24.1242Z" fill="black"/>
</svg>
