<svg width="40" height="40" viewBox="0 0 40 40" fill="none" xmlns="http://www.w3.org/2000/svg">
<circle cx="20" cy="20" r="20" fill="white"/>
<path fill-rule="evenodd" clip-rule="evenodd" d="M26.415 22.382C26.117 22.233 24.656 21.515 24.384 21.415C24.112 21.316 23.914 21.267 23.715 21.565C23.517 21.861 22.948 22.531 22.775 22.729C22.601 22.928 22.428 22.952 22.131 22.804C21.834 22.654 20.876 22.341 19.741 21.329C18.858 20.541 18.261 19.568 18.088 19.27C17.915 18.973 18.069 18.812 18.218 18.664C18.352 18.531 18.515 18.317 18.664 18.144C18.813 17.97 18.862 17.846 18.961 17.647C19.061 17.449 19.011 17.276 18.936 17.127C18.862 16.978 18.268 15.515 18.02 14.92C17.779 14.341 17.534 14.42 17.352 14.41C17.178 14.402 16.98 14.4 16.782 14.4C16.584 14.4 16.262 14.474 15.99 14.772C15.717 15.069 14.95 15.788 14.95 17.251C14.95 18.713 16.014 20.126 16.163 20.325C16.312 20.523 18.258 23.525 21.239 24.812C21.949 25.118 22.502 25.301 22.933 25.437C23.645 25.664 24.293 25.632 24.805 25.555C25.375 25.47 26.563 24.836 26.811 24.142C27.058 23.448 27.058 22.853 26.984 22.729C26.91 22.605 26.712 22.531 26.414 22.382H26.415ZM20.993 29.785H20.989C19.2184 29.7854 17.4804 29.3094 15.957 28.407L15.597 28.193L11.855 29.175L12.854 25.527L12.619 25.153C11.6291 23.5774 11.1053 21.7538 11.108 19.893C11.11 14.443 15.544 10.009 20.997 10.009C23.637 10.009 26.119 11.039 27.985 12.907C28.9054 13.8236 29.6349 14.9136 30.1313 16.1139C30.6277 17.3143 30.8811 18.6011 30.877 19.9C30.875 25.35 26.441 29.785 20.993 29.785V29.785ZM29.405 11.488C28.3032 10.379 26.9922 9.49958 25.5481 8.90084C24.1039 8.3021 22.5553 7.99592 20.992 8.00004C14.438 8.00004 9.102 13.335 9.1 19.892C9.09696 21.9788 9.64437 24.0294 10.687 25.837L9 32L15.304 30.346C17.0479 31.2962 19.0021 31.794 20.988 31.794H20.993C27.547 31.794 32.883 26.459 32.885 19.901C32.8898 18.3383 32.5848 16.7901 31.9874 15.3461C31.3901 13.902 30.5124 12.5907 29.405 11.488" fill="black"/>
</svg>
